<svg xmlns="http://www.w3.org/2000/svg" style="display: none;">
  <symbol id="icon-instagram" viewBox="0 0 24 24">
    <rect x="3" y="3" width="18" height="18" rx="5" ry="5" fill="none" stroke="currentColor" stroke-width="1.8"/>
    <circle cx="12" cy="12" r="4.2" fill="none" stroke="currentColor" stroke-width="1.8"/>
    <circle cx="17.5" cy="6.5" r="1.2" fill="currentColor"/>
  </symbol>

  <symbol id="icon-youtube" viewBox="0 0 24 24">
    <path d="M21.1 7.5a2.9 2.9 0 0 0-2-2c-1.8-.5-7.1-.5-7.1-.5s-5.3 0-7.1.5a2.9 2.9 0 0 0-2 2A30 30 0 0 0 2.4 12a30 30 0 0 0 .5 4.5 2.9 2.9 0 0 0 2 2c1.8.5 7.1.5 7.1.5s5.3 0 7.1-.5a2.9 2.9 0 0 0 2-2 30 30 0 0 0 .5-4.5 30 30 0 0 0-.5-4.5Z" fill="none" stroke="currentColor" stroke-width="1.8"/>
    <path d="m10 15.5 5-3.5-5-3.5Z" fill="currentColor"/>
  </symbol>

  <symbol id="icon-rss" viewBox="0 0 24 24">
    <path d="M5 18.5a1.5 1.5 0 1 1 0 .01Z" fill="currentColor"/>
    <path d="M4.8 11.2a8 8 0 0 1 8 8" fill="none" stroke="currentColor" stroke-width="1.8" stroke-linecap="round"/>
    <path d="M4.8 5a14.2 14.2 0 0 1 14.2 14.2" fill="none" stroke="currentColor" stroke-width="1.8" stroke-linecap="round"/>
  </symbol>

  <symbol id="icon-github" viewBox="0 0 24 24">
    <path d="M12 3.8a8.8 8.8 0 0 0-2.8 17.2c.4.1.5-.2.5-.4v-1.5c-2.1.5-2.6-.9-2.6-.9-.3-.8-.9-1.1-.9-1.1-.8-.5.1-.5.1-.5.8.1 1.2.8 1.2.8.7 1.2 1.9.9 2.3.7.1-.5.3-.9.5-1.1-1.7-.2-3.6-.9-3.6-4a3.1 3.1 0 0 1 .8-2.2 2.9 2.9 0 0 1 .1-2.2s.7-.2 2.3.8a7.9 7.9 0 0 1 4.2 0c1.6-1 2.3-.8 2.3-.8a2.9 2.9 0 0 1 .1 2.2 3.1 3.1 0 0 1 .8 2.2c0 3.1-1.9 3.8-3.7 4 .3.2.6.8.6 1.5v2.3c0 .2.1.5.5.4A8.8 8.8 0 0 0 12 3.8Z" fill="currentColor"/>
  </symbol>

  <symbol id="icon-globe" viewBox="0 0 24 24">
    <circle cx="12" cy="12" r="8.2" fill="none" stroke="currentColor" stroke-width="1.8"/>
    <path d="M3.8 12h16.4M12 3.8a13.7 13.7 0 0 1 0 16.4M12 3.8a13.7 13.7 0 0 0 0 16.4" fill="none" stroke="currentColor" stroke-width="1.4"/>
  </symbol>

  <symbol id="icon-theme-auto" viewBox="0 0 24 24">
    <rect x="4" y="5" width="16" height="11.5" rx="1.8" ry="1.8" fill="none" stroke="currentColor" stroke-width="1.7"/>
    <path d="M9.3 19h5.4M12 16.5V19" fill="none" stroke="currentColor" stroke-width="1.7" stroke-linecap="round"/>
  </symbol>

  <symbol id="icon-theme-system" viewBox="0 0 24 24">
    <rect x="4" y="5" width="16" height="11.5" rx="1.8" ry="1.8" fill="none" stroke="currentColor" stroke-width="1.7"/>
    <path d="M9.3 19h5.4M12 16.5V19" fill="none" stroke="currentColor" stroke-width="1.7" stroke-linecap="round"/>
  </symbol>

  <symbol id="icon-theme-light" viewBox="0 0 24 24">
    <circle cx="12" cy="12" r="4.1" fill="none" stroke="currentColor" stroke-width="1.8"/>
    <path d="M12 2.9v2.5M12 18.6v2.5M21.1 12h-2.5M5.4 12H2.9M18.4 5.6l-1.8 1.8M7.4 16.6l-1.8 1.8M18.4 18.4l-1.8-1.8M7.4 7.4 5.6 5.6" fill="none" stroke="currentColor" stroke-width="1.6" stroke-linecap="round"/>
  </symbol>

  <symbol id="icon-theme-dark" viewBox="0 0 24 24">
    <path d="M14.8 3.2a8.7 8.7 0 1 0 6 12.6 7.7 7.7 0 1 1-6-12.6Z" fill="none" stroke="currentColor" stroke-width="1.8" stroke-linejoin="round"/>
  </symbol>

  <symbol id="icon-share" viewBox="0 0 24 24">
    <circle cx="6" cy="12" r="2.2" fill="currentColor"/>
    <circle cx="18" cy="6" r="2.2" fill="currentColor"/>
    <circle cx="18" cy="18" r="2.2" fill="currentColor"/>
    <path d="M8 11l7.8-4.2M8 13l7.8 4.2" fill="none" stroke="currentColor" stroke-width="1.7" stroke-linecap="round"/>
  </symbol>

  <symbol id="icon-x" viewBox="0 0 24 24">
    <path d="M18.244 2.25h3.308l-7.227 8.26 8.502 11.24h-6.657l-5.207-6.807-5.966 6.807H2.882l7.432-8.491L1.888 2.25h6.657l4.721 6.244 5.586-6.244zM17.15 18.75h1.824L5.782 4.25H3.97L17.15 18.75z" fill="currentColor"/>
  </symbol>

  <symbol id="icon-twitter" viewBox="0 0 24 24">
    <path d="M23.62 4.5c-.87.39-1.81.66-2.82.77 1.01-.6 1.79-1.56 2.16-2.71-.95.56-2 .97-3.12 1.19-.9-.96-2.18-1.56-3.6-1.56-2.72 0-4.92 2.2-4.92 4.92 0 .39.04.77.15 1.14-4.09-.2-7.73-2.17-10.15-5.14-.42.73-.67 1.56-.67 2.46 0 1.71.87 3.21 2.19 4.1-.81-.03-1.57-.25-2.23-.62v.06c0 2.39 1.7 4.39 3.95 4.84-.41.1-.85.17-1.31.17-.32 0-.64-.03-.95-.08.64 2.01 2.5 3.47 4.69 3.51-1.69 1.32-3.82 2.11-6.13 2.11-.4 0-.79-.02-1.18-.07 2.19 1.4 4.79 2.23 7.58 2.23 9.09 0 14.04-7.53 14.04-14.04 0-.21 0-.43-.01-.64.96-.69 1.8-1.56 2.46-2.55z" fill="currentColor"/>
  </symbol>

  <symbol id="icon-facebook" viewBox="0 0 24 24">
    <path d="M24 12.07c0-6.62-5.38-12-12-12S0 5.45 0 12.07C0 18.1 4.39 23.1 10.13 23.9v-8.4H7.08v-3.43h3.04V9.41c0-3 1.79-4.67 4.53-4.67 1.31 0 2.69.23 2.69.23v2.96h-1.52c-1.49 0-1.95.93-1.95 1.88v2.26h3.32l-.53 3.43h-2.79V23.9C19.61 23.1 24 18.1 24 12.07Z" fill="currentColor"/>
  </symbol>

  <symbol id="icon-linkedin" viewBox="0 0 24 24">
    <path d="M20.44 20.45h-3.55v-5.57c0-1.33-.03-3.04-1.85-3.04-1.85 0-2.13 1.44-2.13 2.93v5.68h-3.56V9h3.41v1.56h.05c.48-.9 1.64-1.85 3.37-1.85 3.6 0 4.26 2.37 4.26 5.46v6.28zM5.34 7.43a2.06 2.06 0 1 1 0-4.12 2.06 2.06 0 0 1 0 4.12zm1.78 13.02H3.56V9h3.56v11.45zM22.23 0H1.77C.8 0 0 .77 0 1.72v20.56C0 23.23.8 24 1.77 24h20.46c.98 0 1.77-.77 1.77-1.72V1.72C24 .77 23.21 0 22.23 0Z" fill="currentColor"/>
  </symbol>

  <symbol id="icon-tiktok" viewBox="0 0 32 32">
    <path d="M16.656 1.029c1.637-0.025 3.262-0.012 4.886-0.025 0.054 2.031 0.878 3.859 2.189 5.213l-0.002-0.002c1.411 1.271 3.247 2.095 5.271 2.235l0.028 0.002v5.036c-1.912-0.048-3.71-0.489-5.331-1.247l0.082 0.034c-0.784-0.377-1.447-0.764-2.077-1.196l0.052 0.034c-0.012 3.649 0.012 7.298-0.025 10.934-0.103 1.853-0.719 3.543-1.707 4.954l0.020-0.031c-1.652 2.366-4.328 3.919-7.371 4.011l-0.014 0c-0.123 0.006-0.268 0.009-0.414 0.009-1.73 0-3.347-0.482-4.725-1.319l0.040 0.023c-2.508-1.509-4.238-4.091-4.558-7.094l-0.004-0.041c-0.025-0.625-0.037-1.25-0.012-1.862 0.49-4.779 4.494-8.476 9.361-8.476 0.547 0 1.083 0.047 1.604 0.136l-0.056-0.008c0.025 1.849-0.050 3.699-0.050 5.548-0.423-0.153-0.911-0.242-1.42-0.242-1.868 0-3.457 1.194-4.045 2.861l-0.009 0.030c-0.133 0.427-0.21 0.918-0.21 1.426 0 0.206 0.013 0.41 0.037 0.61l-0.002-0.024c0.332 2.046 2.086 3.59 4.201 3.59 0.061 0 0.121-0.001 0.181-0.004l-0.009 0c1.463-0.044 2.733-0.831 3.451-1.994l0.010-0.018c0.267-0.372 0.45-0.822 0.511-1.311l0.001-0.014c0.125-2.237 0.075-4.461 0.087-6.698 0.012-5.036-0.012-10.060 0.025-15.083z" fill="currentColor"/>
  </symbol>

  <symbol id="icon-email" viewBox="0 0 24 24">
    <path d="M3 3h18c1.1 0 2 .9 2 2v14c0 1.1-.9 2-2 2H3c-1.1 0-2-.9-2-2V5c0-1.1.9-2 2-2z" fill="none" stroke="currentColor" stroke-width="1.8"/>
    <path d="M3 5l9 7 9-7" fill="none" stroke="currentColor" stroke-width="1.8" stroke-linecap="round" stroke-linejoin="round"/>
  </symbol>

  <symbol id="icon-phone" viewBox="0 0 24 24">
    <path d="M3.5 3h4.25l1.5 7-3.5 2c1.2 2.3 3.2 4.3 5.5 5.5l2-3.5 7 1.5v4.25c0 .5-.4.9-.9.9C9 20 3 14 3 6.4c0-.5.4-.9.9-.9z" fill="none" stroke="currentColor" stroke-width="1.8" stroke-linejoin="round"/>
  </symbol>

  <symbol id="icon-pinterest" viewBox="0 0 24 24">
    <circle cx="12" cy="12" r="9.2" fill="none" stroke="currentColor" stroke-width="1.8"/>
    <path d="M10 14c-.5 2 1 3 2 3 2 0 3-1.5 3-3.5 0-3-2-4.5-4-4.5-2.5 0-4 1.5-4 4 0 1 .3 2 1 2.5" fill="none" stroke="currentColor" stroke-width="1.8" stroke-linecap="round"/>
  </symbol>

  <symbol id="icon-reddit" viewBox="0 0 24 24">
    <path d="M12 2.2a9.8 9.8 0 1 0 9.8 9.8A9.8 9.8 0 0 0 12 2.2zm-2 8a1 1 0 0 1 2 0 1 1 0 0 1-2 0zm6.5 9.5c-1.2 1-3.2 1.3-4.5 1.3s-3.3-.3-4.5-1.3" fill="none" stroke="currentColor" stroke-width="1.8" stroke-linecap="round" stroke-linejoin="round"/>
    <circle cx="15" cy="11.2" r="1" fill="currentColor"/>
  </symbol>

  <symbol id="icon-discord" viewBox="0 0 24 24">
    <path d="M20.3 2.3A19.8 19.8 0 0 0 13.5 0l-.6 1.2a18.2 18.2 0 0 0-5.8 0L6.5 0a19.8 19.8 0 0 0-6.8 2.3C.3 8.7-1.8 15.8 1 22c2.2 1.6 4.3 2.6 6.4 3.2l1.2-1.6a13.2 13.2 0 0 1-1.9-1c.2-.1.3-.2.5-.3 3.7 1.7 7.7 1.7 11.4 0 .2.1.3.2.5.3-.6.3-1.2.7-1.9 1l1.2 1.6c2.1-.6 4.2-1.6 6.4-3.2 2.8-6.2.7-13.3-2.8-17.7zM8.2 18.2c-1.5 0-2.7-1.4-2.7-3s1.2-3 2.7-3 2.7 1.3 2.7 3-1.2 3-2.7 3zm7.6 0c-1.5 0-2.7-1.4-2.7-3s1.2-3 2.7-3 2.7 1.3 2.7 3-1.2 3-2.7 3z" fill="currentColor"/>
  </symbol>

  <symbol id="icon-mastodon" viewBox="0 0 24 24">
    <path d="M20.9 13.8c-.3 1.5-.9 2.8-1.8 3.8-.9 1-2 1.7-3.3 2.1-1.4.4-2.8.6-4.3.6-1.5 0-2.9-.2-4.3-.6-1.3-.4-2.4-1.1-3.3-2.1-.9-1-1.5-2.3-1.8-3.8-.2-1.1-.3-2.3-.3-3.6 0-3.6.7-6.5 2.1-8.6 1.5-2.2 3.7-3.3 6.7-3.3h.2c3 0 5.2 1.1 6.7 3.3 1.4 2.1 2.1 5 2.1 8.6 0 1.3-.1 2.5-.3 3.6zm-7.2 2.2h-1.8v-4.6c0-1 .3-1.7.9-2.1.6-.4 1.4-.6 2.4-.6s1.8.2 2.4.6c.6.4.9 1.1.9 2.1v4.6h-1.8v-3.9c0-.5-.1-.9-.4-1.1-.2-.2-.6-.3-1.1-.3s-.9.1-1.1.3c-.3.2-.4.6-.4 1.1v3.9z" fill="currentColor"/>
  </symbol>

  <symbol id="icon-twitch" viewBox="0 0 24 24">
    <path d="M3 2v17h5v3l5-3h6V8h1V2H3zm15 9h-1V5h-3v6h-3v3h3v5h3v-5h1V11z" fill="currentColor"/>
  </symbol>

  <symbol id="icon-spotify" viewBox="0 0 496 512">
    <path fill="none" d="M248 8C111.1 8 0 119.1 0 256s111.1 248 248 248 248-111.1 248-248S384.9 8 248 8Z"/>
    <path fill="currentColor" d="M406.6 231.1c-5.2 0-8.4-1.3-12.9-3.9-71.2-42.5-198.5-52.7-280.9-29.7-3.6 1-8.1 2.6-12.9 2.6-13.2 0-23.3-10.3-23.3-23.6 0-13.6 8.4-21.3 17.4-23.9 35.2-10.3 74.6-15.2 117.5-15.2 73 0 149.5 15.2 205.4 47.8 7.8 4.5 12.9 10.7 12.9 22.6 0 13.6-11 23.3-23.2 23.3zm-31 76.2c-5.2 0-8.7-2.3-12.3-4.2-62.5-37-155.7-51.9-238.6-29.4-4.8 1.3-7.4 2.6-11.9 2.6-10.7 0-19.4-8.7-19.4-19.4s5.2-17.8 15.5-20.7c27.8-7.8 56.2-13.6 97.8-13.6 64.9 0 127.6 16.1 177 45.5 8.1 4.8 11.3 11 11.3 19.7-.1 10.8-8.5 19.5-19.4 19.5zm-26.9 65.6c-4.2 0-6.8-1.3-10.7-3.6-62.4-37.6-135-39.2-206.7-24.5-3.9 1-9 2.6-11.9 2.6-9.7 0-15.8-7.7-15.8-15.8 0-10.3 6.1-15.2 13.6-16.8 81.9-18.1 165.6-16.5 237 26.2 6.1 3.9 9.7 7.4 9.7 16.5s-7.1 15.4-15.2 15.4z"/>
  </symbol>
</svg>