<svg xmlns="http://www.w3.org/2000/svg" viewBox="0 0 1600 700" role="img" aria-labelledby="title desc">
  <title id="title">Tags page header</title>
  <desc id="desc">Abstract chips and connecting lines suggesting topics and categories.</desc>
  <defs>
    <linearGradient id="bg" x1="0" x2="1" y1="0" y2="1">
      <stop offset="0%" stop-color="#101935"/>
      <stop offset="60%" stop-color="#2d5d7b"/>
      <stop offset="100%" stop-color="#77a6b6"/>
    </linearGradient>
  </defs>
  <rect width="1600" height="700" fill="url(#bg)"/>
  <g opacity="0.4" stroke="#d4ecff" stroke-width="2" fill="none">
    <path d="M260 220 L560 300 L850 220 L1160 300 L1400 210"/>
    <path d="M260 360 L520 420 L780 360 L1040 430 L1320 360"/>
  </g>
  <g fill="#dff3ff" opacity="0.22">
    <rect x="190" y="182" width="120" height="54" rx="27"/>
    <rect x="510" y="274" width="130" height="54" rx="27"/>
    <rect x="796" y="193" width="126" height="54" rx="27"/>
    <rect x="1096" y="272" width="138" height="54" rx="27"/>
    <rect x="1315" y="182" width="120" height="54" rx="27"/>
    <rect x="220" y="330" width="120" height="54" rx="27"/>
    <rect x="474" y="396" width="126" height="54" rx="27"/>
    <rect x="742" y="334" width="116" height="54" rx="27"/>
    <rect x="998" y="404" width="130" height="54" rx="27"/>
    <rect x="1268" y="334" width="126" height="54" rx="27"/>
  </g>
  <path d="M0 610 C240 560 470 620 730 600 C980 580 1220 635 1600 585 L1600 700 L0 700 Z" fill="#0d1f2f" opacity="0.9"/>
</svg>