<svg xmlns="http://www.w3.org/2000/svg" viewBox="0 0 1600 700" role="img" aria-labelledby="title desc">
  <title id="title">Blog page header</title>
  <desc id="desc">A vibrant abstract grid and flowing waves for an editorial section.</desc>
  <defs>
    <linearGradient id="bg" x1="0" x2="1" y1="0" y2="1">
      <stop offset="0%" stop-color="#13293d"/>
      <stop offset="50%" stop-color="#1b4965"/>
      <stop offset="100%" stop-color="#62b6cb"/>
    </linearGradient>
  </defs>
  <rect width="1600" height="700" fill="url(#bg)"/>
  <g opacity="0.2" fill="none" stroke="#d9f0ff" stroke-width="1.5">
    <path d="M0 160 H1600"/>
    <path d="M0 260 H1600"/>
    <path d="M0 360 H1600"/>
    <path d="M0 460 H1600"/>
    <path d="M200 0 V700"/>
    <path d="M500 0 V700"/>
    <path d="M800 0 V700"/>
    <path d="M1100 0 V700"/>
    <path d="M1400 0 V700"/>
  </g>
  <path d="M0 510 C200 460 340 560 560 520 C830 470 980 560 1200 520 C1380 490 1490 530 1600 500 L1600 700 L0 700 Z" fill="#0b2234" opacity="0.78"/>
  <path d="M0 580 C240 540 420 640 650 610 C900 575 1090 655 1300 620 C1430 600 1510 620 1600 605 L1600 700 L0 700 Z" fill="#081722" opacity="0.9"/>
</svg>