<svg xmlns="http://www.w3.org/2000/svg" viewBox="0 0 1600 700" role="img" aria-labelledby="title desc">
  <title id="title">404 Not Found header</title>
  <desc id="desc">A night horizon with wandering route lines to suggest a missing destination.</desc>
  <defs>
    <linearGradient id="bg404" x1="0" x2="1" y1="0" y2="1">
      <stop offset="0%" stop-color="#101830"/>
      <stop offset="50%" stop-color="#1b2c54"/>
      <stop offset="100%" stop-color="#314a7a"/>
    </linearGradient>
  </defs>

  <rect width="1600" height="700" fill="url(#bg404)"/>

  <g fill="none" stroke="#c5e0ff" stroke-width="4" stroke-linecap="round" opacity="0.35">
    <path d="M90 170 C210 145 245 225 375 200 C500 176 555 105 690 130 C840 158 910 236 1060 216 C1180 198 1300 124 1510 164"/>
    <path d="M120 268 C250 288 355 208 515 242 C660 274 760 340 920 314 C1090 286 1210 224 1480 250"/>
  </g>

  <g fill="#d7e8ff" opacity="0.75">
    <circle cx="1260" cy="130" r="42"/>
    <circle cx="360" cy="95" r="14"/>
    <circle cx="430" cy="130" r="9"/>
    <circle cx="500" cy="84" r="7"/>
  </g>

  <path d="M0 530 C250 505 480 600 760 566 C1020 533 1240 602 1600 560 L1600 700 L0 700 Z" fill="#0d1525" opacity="0.84"/>
  <path d="M0 590 C220 572 520 650 760 626 C1000 602 1300 646 1600 620 L1600 700 L0 700 Z" fill="#080f1b" opacity="0.95"/>

  <g fill="#edf4ff" opacity="0.78" font-family="Sora, sans-serif" font-weight="700" font-size="110" letter-spacing="8">
    <text x="150" y="210">404</text>
  </g>
</svg>
