<svg xmlns="http://www.w3.org/2000/svg" viewBox="0 0 1600 700" role="img" aria-labelledby="title desc">
  <title id="title">Sitemap page header</title>
  <desc id="desc">An abstract route-map style graphic with linked nodes and branching paths.</desc>
  <defs>
    <linearGradient id="bg" x1="0" x2="1" y1="0" y2="1">
      <stop offset="0%" stop-color="#0f1d38"/>
      <stop offset="55%" stop-color="#245273"/>
      <stop offset="100%" stop-color="#6ea4bf"/>
    </linearGradient>
  </defs>
  <rect width="1600" height="700" fill="url(#bg)"/>
  <g stroke="#d8f1ff" stroke-width="3" opacity="0.36" fill="none">
    <path d="M120 160 C320 120 430 220 620 200 C870 175 980 280 1180 250 C1330 230 1450 280 1540 260"/>
    <path d="M140 330 C300 300 410 370 580 350 C780 320 890 420 1080 390 C1260 360 1410 410 1530 380"/>
    <path d="M160 510 C340 470 470 560 650 530 C860 495 980 585 1180 545 C1330 515 1450 570 1540 540"/>
    <path d="M620 200 L580 350 L650 530"/>
    <path d="M1180 250 L1080 390 L1180 545"/>
  </g>
  <g fill="#eef9ff" opacity="0.7">
    <circle cx="120" cy="160" r="10"/>
    <circle cx="620" cy="200" r="12"/>
    <circle cx="1180" cy="250" r="12"/>
    <circle cx="1540" cy="260" r="10"/>
    <circle cx="140" cy="330" r="10"/>
    <circle cx="580" cy="350" r="12"/>
    <circle cx="1080" cy="390" r="12"/>
    <circle cx="1530" cy="380" r="10"/>
    <circle cx="160" cy="510" r="10"/>
    <circle cx="650" cy="530" r="12"/>
    <circle cx="1180" cy="545" r="12"/>
    <circle cx="1540" cy="540" r="10"/>
  </g>
  <path d="M0 610 C250 565 470 640 770 610 C1030 585 1270 655 1600 610 L1600 700 L0 700 Z" fill="#102338" opacity="0.92"/>
</svg>