<svg xmlns="http://www.w3.org/2000/svg" viewBox="0 0 1600 700" role="img" aria-labelledby="title desc">
  <title id="title">Social media page header</title>
  <desc id="desc">Connected nodes over a twilight gradient representing social connections.</desc>
  <defs>
    <linearGradient id="bg" x1="0" x2="1" y1="0" y2="1">
      <stop offset="0%" stop-color="#1f1f3d"/>
      <stop offset="48%" stop-color="#2e3a6d"/>
      <stop offset="100%" stop-color="#4c8da8"/>
    </linearGradient>
  </defs>
  <rect width="1600" height="700" fill="url(#bg)"/>
  <g stroke="#d8efff" stroke-width="2" opacity="0.35" fill="none">
    <path d="M220 210 L420 170 L610 250 L820 200 L1030 270 L1240 220 L1420 280"/>
    <path d="M260 360 L470 430 L700 370 L930 450 L1160 370 L1380 430"/>
    <path d="M420 170 L470 430"/>
    <path d="M820 200 L930 450"/>
    <path d="M1240 220 L1160 370"/>
  </g>
  <g fill="#f2fbff" opacity="0.72">
    <circle cx="220" cy="210" r="10"/>
    <circle cx="420" cy="170" r="12"/>
    <circle cx="610" cy="250" r="10"/>
    <circle cx="820" cy="200" r="12"/>
    <circle cx="1030" cy="270" r="10"/>
    <circle cx="1240" cy="220" r="12"/>
    <circle cx="1420" cy="280" r="10"/>
    <circle cx="260" cy="360" r="10"/>
    <circle cx="470" cy="430" r="12"/>
    <circle cx="700" cy="370" r="10"/>
    <circle cx="930" cy="450" r="12"/>
    <circle cx="1160" cy="370" r="10"/>
    <circle cx="1380" cy="430" r="12"/>
  </g>
  <path d="M0 600 C270 560 540 640 850 610 C1110 585 1320 655 1600 615 L1600 700 L0 700 Z" fill="#131c34" opacity="0.9"/>
</svg>