<svg xmlns="http://www.w3.org/2000/svg" viewBox="0 0 1600 700" role="img" aria-labelledby="title desc">
  <title id="title">403 Forbidden header</title>
  <desc id="desc">A dark barrier motif with vertical gate bars to suggest access denied.</desc>
  <defs>
    <linearGradient id="bg403" x1="0" x2="1" y1="0" y2="1">
      <stop offset="0%" stop-color="#0f1a23"/>
      <stop offset="45%" stop-color="#1d2d3d"/>
      <stop offset="100%" stop-color="#3a3f4e"/>
    </linearGradient>
  </defs>

  <rect width="1600" height="700" fill="url(#bg403)"/>

  <g opacity="0.52" fill="#7cc6d2">
    <rect x="220" y="0" width="34" height="700"/>
    <rect x="340" y="0" width="28" height="700"/>
    <rect x="460" y="0" width="34" height="700"/>
    <rect x="590" y="0" width="30" height="700"/>
    <rect x="720" y="0" width="34" height="700"/>
    <rect x="850" y="0" width="30" height="700"/>
    <rect x="980" y="0" width="34" height="700"/>
    <rect x="1110" y="0" width="28" height="700"/>
    <rect x="1230" y="0" width="34" height="700"/>
  </g>

  <rect x="0" y="500" width="1600" height="200" fill="#0b1219" opacity="0.86"/>
  <path d="M0 510 C240 470 470 560 710 520 C930 488 1180 555 1600 510 L1600 700 L0 700 Z" fill="#111b26" opacity="0.95"/>

  <g fill="#e2f4f7" opacity="0.8" font-family="Sora, sans-serif" font-weight="700" font-size="110" letter-spacing="8">
    <text x="150" y="210">403</text>
  </g>
</svg>
